<svg xmlns="http://www.w3.org/2000/svg" version="1.1" xmlns:xlink="http://www.w3.org/1999/xlink" xmlns:svgjs="http://svgjs.dev/svgjs" width="1920" height="1080" preserveAspectRatio="none" viewBox="0 0 1920 1080">
    <g mask="url(&quot;#SvgjsMask1032&quot;)" fill="none">
        <path d="M-33.413778089173 566.4304340515755L-7.607665496089961 776.6043549689605 202.56625542129495 750.7982423758774 176.7601428282119 540.6243214584924z" fill="rgba(146, 99, 32, 0.5882352941176471)" class="triangle-float2"></path>
        <path d="M1410.33,386.804C1482.25,383.789,1545.25,339.839,1578.662,276.08C1609.8,216.661,1600.108,146.787,1566.549,88.7C1533.01,30.646,1477.366,-14.116,1410.33,-15.288C1341.413,-16.493,1281.301,24.878,1244.35,83.065C1204.091,146.461,1179.624,225.399,1215.636,291.3C1252.787,359.286,1332.923,390.049,1410.33,386.804" fill="rgba(146, 99, 32, 0.5882352941176471)" class="triangle-float1"></path>
        <path d="M1487.38,547.259C1562.37,542.357,1624.869,496.089,1662.835,431.235C1701.264,365.59,1716.834,285.288,1679.557,218.982C1641.641,151.538,1564.687,122.299,1487.38,119.142C1402.971,115.695,1312.071,131.315,1265.945,202.09C1216.2,278.418,1217.932,380.415,1267.126,457.099C1313.038,528.665,1402.534,552.805,1487.38,547.259" fill="rgba(146, 99, 32, 0.5882352941176471)" class="triangle-float2"></path>
        <path d="M263.8333811303943 924.7509814996026L34.1046908792199 797.4102891149872 136.49268874577888 1154.479671750777z" fill="rgba(146, 99, 32, 0.5882352941176471)" class="triangle-float1"></path>
        <path d="M298.7166852495765 517.0809401299667L354.1375854209705 335.8073436856144 54.516740668745 343.31279165069964z" fill="rgba(146, 99, 32, 0.5882352941176471)" class="triangle-float3"></path>
        <path d="M356.3584038571918 172.06664083932955L324.9007937946193 471.36580783346403 655.6575708513262 203.52425090190204z" fill="rgba(146, 99, 32, 0.5882352941176471)" class="triangle-float3"></path>
        <path d="M559.358,746.871C662.895,749.829,767.079,712.195,822.186,624.492C880.71,531.352,884.548,412.016,829.66,316.689C774.666,221.177,669.53,165.022,559.358,168.021C454.034,170.888,363.342,237.97,313.397,330.743C266.054,418.683,270.499,524.202,321.318,610.18C371.218,694.603,461.331,744.07,559.358,746.871" fill="rgba(146, 99, 32, 0.5882352941176471)" class="triangle-float1"></path>
        <path d="M1824.8578602718396 972.3505298444112L1773.6636725235323 708.979265669519 1510.29240834864 760.1734534178263 1561.4865960969473 1023.5447175927185z" fill="rgba(146, 99, 32, 0.5882352941176471)" class="triangle-float2"></path>
        <path d="M1246.8364028358258 838.5062800660053L1423.2054944584634 628.3177815021496 1213.0169958946076 451.94868987951213 1036.6479042719702 662.1371884433678z" fill="rgba(146, 99, 32, 0.5882352941176471)" class="triangle-float3"></path>
        <path d="M1267.5484780878758 896.6130919957602L1366.319046108427 710.8526707222194 1081.7880568143348 797.8425239752089z" fill="rgba(146, 99, 32, 0.5882352941176471)" class="triangle-float1"></path>
    </g>
    <defs>
        <mask id="SvgjsMask1032">
            <rect width="1920" height="1080" fill="#ffffff"></rect>
        </mask>
        <style>
            @keyframes float1 {
                    0%{transform: translate(0, 0)}
                    50%{transform: translate(-10px, 0)}
                    100%{transform: translate(0, 0)}
                }

                .triangle-float1 {
                    animation: float1 5s infinite;
                }

                @keyframes float2 {
                    0%{transform: translate(0, 0)}
                    50%{transform: translate(-5px, -5px)}
                    100%{transform: translate(0, 0)}
                }

                .triangle-float2 {
                    animation: float2 4s infinite;
                }

                @keyframes float3 {
                    0%{transform: translate(0, 0)}
                    50%{transform: translate(0, -10px)}
                    100%{transform: translate(0, 0)}
                }

                .triangle-float3 {
                    animation: float3 6s infinite;
                }
        </style>
    </defs>
</svg>