<svg xmlns="http://www.w3.org/2000/svg" version="1.1" xmlns:xlink="http://www.w3.org/1999/xlink" xmlns:svgjs="http://svgjs.dev/svgjs" width="1920" height="1080" preserveAspectRatio="none" viewBox="0 0 1920 1080">
    <g mask="url(&quot;#SvgjsMask1051&quot;)" fill="none">
        <path d="M657.4051121494279 174.52096537541053L634.1938955052796 439.8263856287507 899.4993157586197 463.03760227289905 922.710532402768 197.73218201955888z" fill="rgba(223, 175, 108, 0.5882352941176471)" class="triangle-float2"></path>
        <path d="M1200.9098885907215 1150.009254721033L1515.1903073609894 1211.099179677529 1576.2802323174856 896.8187609072611 1261.9998135472176 835.728835950765z" fill="rgba(223, 175, 108, 0.5882352941176471)" class="triangle-float1"></path>
        <path d="M515.91,1214.435C594.493,1210.268,672.443,1180.903,711.094,1112.356C749.158,1044.85,730.44,965.158,695.464,896.001C655.642,817.263,603.9,732.99,515.91,726.426C419.331,719.221,331.289,781.247,283.068,865.235C235.052,948.865,227.743,1054.919,281.242,1135.152C330.336,1208.779,427.54,1219.121,515.91,1214.435" fill="rgba(223, 175, 108, 0.5882352941176471)" class="triangle-float2"></path>
        <path d="M-52.099,613.578C-22.776,612.704,0.43,592.491,15.917,567.576C32.557,540.806,44.404,508.899,30.574,480.575C15.239,449.168,-17.199,426.388,-52.099,428.272C-84.704,430.032,-105.447,459.833,-120.632,488.739C-134.488,515.116,-141.86,545.734,-127.522,571.852C-112.703,598.847,-82.88,614.496,-52.099,613.578" fill="rgba(223, 175, 108, 0.5882352941176471)" class="triangle-float1"></path>
        <path d="M740.401,703.733C797.301,699.993,850.032,675.078,880.177,626.675C912.251,575.175,920.42,511.928,893.815,457.402C863.57,395.416,809.322,342.843,740.401,340.21C667.561,337.428,601.438,381.576,565.25,444.852C529.323,507.672,524.156,587.473,564.709,647.411C601.646,702.005,674.628,708.056,740.401,703.733" fill="rgba(223, 175, 108, 0.5882352941176471)" class="triangle-float2"></path>
        <path d="M711.7880437154801 529.15187185753L836.4400647018886 809.1248949344837 1116.4130877788423 684.4728739480752 991.7610667924338 404.49985087112145z" fill="rgba(223, 175, 108, 0.5882352941176471)" class="triangle-float2"></path>
        <path d="M1025.715,229.516C1091.853,229.224,1153.811,198.409,1189.102,142.472C1227.027,82.36,1240.515,6.192,1205.71,-55.779C1170.293,-118.84,1098.041,-148.232,1025.715,-148.437C952.99,-148.643,879.836,-120.056,843.944,-56.805C808.441,5.761,821.259,83.192,859.815,143.924C895.561,200.23,959.022,229.81,1025.715,229.516" fill="rgba(223, 175, 108, 0.5882352941176471)" class="triangle-float1"></path>
        <path d="M1098.009557490941 989.6634618553118L930.1902132067911 947.8213999064925 888.3481512579718 1115.6407441906424 1056.1674955421217 1157.4828061394617z" fill="rgba(223, 175, 108, 0.5882352941176471)" class="triangle-float3"></path>
        <path d="M133.72445503660782 357.31456917949174L2.191515244507542 525.6690548241465 320.4897136075399 638.7912216899695z" fill="rgba(223, 175, 108, 0.5882352941176471)" class="triangle-float1"></path>
        <path d="M1024.338,1577.52C1136.95,1579.068,1224.503,1492.995,1282.305,1396.337C1342.07,1296.397,1381.9,1175.392,1325.852,1073.321C1268.187,968.305,1144.109,923.655,1024.338,926.544C909.852,929.306,800.75,986.158,747.011,1087.285C696.087,1183.114,724.935,1294.959,778.367,1389.412C832.838,1485.701,913.719,1576,1024.338,1577.52" fill="rgba(223, 175, 108, 0.5882352941176471)" class="triangle-float1"></path>
        <path d="M396.332,474.897C470.644,471.395,539.532,436.311,577.582,372.384C616.54,306.93,622.256,225.257,584.186,159.282C546.102,93.282,472.386,62.998,396.332,58.276C309.022,52.855,210.443,59.517,163.204,133.143C113.314,210.9,130.799,314.667,182.861,390.987C229.04,458.682,314.477,478.755,396.332,474.897" fill="rgba(223, 175, 108, 0.5882352941176471)" class="triangle-float1"></path>
        <path d="M1520.4848094672177 811.6169475138266L1612.5933572942013 971.1536321615499 1680.0214941149409 719.5083996868431z" fill="rgba(223, 175, 108, 0.5882352941176471)" class="triangle-float2"></path>
        <path d="M299.8677097205624 198.7698256730396L95.42366800447238-12.938176997835399-116.28433466640263 191.50586471825463 88.1597070496874 403.21386738912963z" fill="rgba(223, 175, 108, 0.5882352941176471)" class="triangle-float1"></path>
        <path d="M1113.615281241164 695.2702956283844L1009.0975442915716 551.4139721224034 865.2412207855906 655.9317090719959 969.758957735183 799.7880325779768z" fill="rgba(223, 175, 108, 0.5882352941176471)" class="triangle-float2"></path>
        <path d="M-74.05564238586706 1142.489136067201L103.41339544997712 1151.7898942316756 112.71415361445176 974.3208563958314-64.75488422139243 965.0200982313568z" fill="rgba(223, 175, 108, 0.5882352941176471)" class="triangle-float2"></path>
        <path d="M1016.424756915862 215.20217460239988L1187.524878643303 264.26434501051403 1175.5680733917536-16.916922784704695z" fill="rgba(223, 175, 108, 0.5882352941176471)" class="triangle-float2"></path>
        <path d="M1883.447,921.966C1993.651,922.758,2085.582,847.836,2141.406,752.814C2198.083,656.34,2221.556,537.871,2166.234,440.613C2110.393,342.442,1996.25,293.719,1883.447,299.308C1779.652,304.451,1696.09,375.723,1645.359,466.421C1595.993,554.679,1584.989,659.528,1631.83,749.152C1682.343,845.802,1774.396,921.182,1883.447,921.966" fill="rgba(223, 175, 108, 0.5882352941176471)" class="triangle-float2"></path>
        <path d="M1805.538,770.615C1844.628,772.909,1878.831,746.532,1898.615,712.741C1918.629,678.557,1924.463,636.079,1904.255,602.009C1884.391,568.519,1844.356,552.759,1805.538,555.819C1771.357,558.514,1746.272,585.238,1730.542,615.704C1716.261,643.363,1716.07,674.809,1729.634,702.826C1745.477,735.551,1769.242,768.485,1805.538,770.615" fill="rgba(223, 175, 108, 0.5882352941176471)" class="triangle-float3"></path>
        <path d="M605.2368767971195 385.61781655616596L596.2258341047522 127.57531567436706 338.18333322295325 136.5863583667344 347.1943759153206 394.62885924853333z" fill="rgba(223, 175, 108, 0.5882352941176471)" class="triangle-float2"></path>
    </g>
    <defs>
        <mask id="SvgjsMask1051">
            <rect width="1920" height="1080" fill="#ffffff"></rect>
        </mask>
        <style>
            @keyframes float1 {
                    0%{transform: translate(0, 0)}
                    50%{transform: translate(-10px, 0)}
                    100%{transform: translate(0, 0)}
                }

                .triangle-float1 {
                    animation: float1 5s infinite;
                }

                @keyframes float2 {
                    0%{transform: translate(0, 0)}
                    50%{transform: translate(-5px, -5px)}
                    100%{transform: translate(0, 0)}
                }

                .triangle-float2 {
                    animation: float2 4s infinite;
                }

                @keyframes float3 {
                    0%{transform: translate(0, 0)}
                    50%{transform: translate(0, -10px)}
                    100%{transform: translate(0, 0)}
                }

                .triangle-float3 {
                    animation: float3 6s infinite;
                }
        </style>
    </defs>
</svg>